<svg width="97" height="97" viewBox="0 0 97 97" fill="none" xmlns="http://www.w3.org/2000/svg">
<mask id="mask0_154_1565" style="mask-type:luminance" maskUnits="userSpaceOnUse" x="18" y="15" width="66" height="67">
<path d="M18.4141 15.9062H83.6014V81.094H18.4141V15.9062Z" fill="white"/>
</mask>
<g mask="url(#mask0_154_1565)">
<mask id="mask1_154_1565" style="mask-type:luminance" maskUnits="userSpaceOnUse" x="18" y="15" width="66" height="67">
<path d="M51.0075 15.906C33.0066 15.906 18.4141 30.499 18.4141 48.4999C18.4141 66.5008 33.0066 81.0938 51.0075 81.0938C69.0088 81.0938 83.6014 66.5008 83.6014 48.4999C83.6014 30.499 69.0088 15.906 51.0075 15.906Z" fill="white"/>
</mask>
<g mask="url(#mask1_154_1565)">
<path d="M18.4141 15.906H83.6014V81.0938H18.4141V15.906Z" fill="white"/>
</g>
</g>
<mask id="mask2_154_1565" style="mask-type:luminance" maskUnits="userSpaceOnUse" x="34" y="36" width="15" height="28">
<path d="M34.6094 36.1719H48.7649V63.0334H34.6094V36.1719Z" fill="white"/>
</mask>
<g mask="url(#mask2_154_1565)">
<path d="M48.2638 36.2898C47.9998 36.1809 47.6977 36.2415 47.4959 36.4429L39.2492 44.69H35.3139C34.925 44.69 34.6094 45.0052 34.6094 45.3941V53.8476C34.6094 54.2373 34.925 54.5521 35.3139 54.5521H39.2492L47.4959 62.7992C47.6305 62.9339 47.8111 63.0055 47.9941 63.0055C48.0849 63.0055 48.1766 62.9888 48.2638 62.9519C48.5267 62.8434 48.6986 62.5855 48.6986 62.301V36.9407C48.6986 36.6562 48.5267 36.3991 48.2638 36.2898ZM47.2895 60.6005L40.0388 53.3498C39.907 53.2172 39.7273 53.1431 39.5406 53.1431H36.0184V46.0987H39.5406C39.7273 46.0987 39.907 46.0246 40.0388 45.8923L47.2895 38.6412V60.6005Z" fill="#63BDB3"/>
</g>
<path d="M53.2926 46.1334C53.0171 46.4081 53.0171 46.8543 53.2926 47.1294C54.6656 48.5024 54.6656 50.7371 53.2926 52.1106C53.0171 52.3861 53.0171 52.8315 53.2926 53.107C53.4297 53.2441 53.6102 53.3133 53.7908 53.3133C53.9709 53.3133 54.1514 53.2441 54.2886 53.107C56.2109 51.1846 56.2109 48.0558 54.2886 46.1334C54.0139 45.8579 53.5681 45.8579 53.2926 46.1334Z" fill="#63BDB3"/>
<path d="M58.2768 42.1485C58.0013 41.8734 57.5564 41.8734 57.2808 42.1485C57.0053 42.424 57.0053 42.8694 57.2808 43.1449C59.0117 44.8765 59.9655 47.1755 59.9655 49.6202C59.9655 52.0646 59.0117 54.3644 57.2808 56.0952C57.0053 56.3707 57.0053 56.8161 57.2808 57.0916C57.418 57.2288 57.5985 57.2979 57.7786 57.2979C57.9592 57.2979 58.1393 57.2288 58.2768 57.0916C60.2737 55.0943 61.3737 52.4408 61.3737 49.6202C61.3737 46.7993 60.2737 44.1458 58.2768 42.1485Z" fill="#63BDB3"/>
<path d="M62.2613 38.1637C61.9858 37.8882 61.5404 37.8882 61.2649 38.1637C60.9898 38.4392 60.9898 38.8841 61.2649 39.1597C67.0333 44.9276 67.0333 54.3132 61.2649 60.0812C60.9898 60.3567 60.9898 60.8017 61.2649 61.0772C61.4025 61.2148 61.5826 61.2835 61.7631 61.2835C61.9436 61.2835 62.1238 61.2148 62.2613 61.0772C68.5787 54.7598 68.5787 44.4802 62.2613 38.1637Z" fill="#63BDB3"/>
</svg>
