<svg width="107" height="107" viewBox="0 0 107 107" fill="none" xmlns="http://www.w3.org/2000/svg">
<mask id="mask0_155_1995" style="mask-type:luminance" maskUnits="userSpaceOnUse" x="17" y="17" width="73" height="73">
<path d="M17.5469 17.5459H89.4747V89.4737H17.5469V17.5459Z" fill="white"/>
</mask>
<g mask="url(#mask0_155_1995)">
<path d="M89.4846 53.5206C89.4846 54.1094 89.4702 54.6971 89.4413 55.2854C89.4124 55.8731 89.369 56.4598 89.3112 57.0455C89.2534 57.6311 89.1817 58.2153 89.095 58.7973C89.0088 59.3794 88.9082 59.9589 88.7931 60.5363C88.6786 61.1137 88.5496 61.6875 88.4067 62.2582C88.2637 62.8294 88.1069 63.3965 87.9361 63.9595C87.7653 64.523 87.5805 65.0813 87.3824 65.6355C87.1837 66.1897 86.9721 66.7387 86.7472 67.2821C86.5217 67.826 86.2833 68.3642 86.032 68.8962C85.7802 69.4282 85.5154 69.9535 85.2383 70.4726C84.9607 70.9917 84.6707 71.5036 84.3684 72.0082C84.0655 72.5129 83.7507 73.0103 83.4241 73.4995C83.0969 73.9887 82.7579 74.4701 82.4075 74.9428C82.0571 75.4155 81.6949 75.8794 81.3218 76.334C80.9482 76.7891 80.5638 77.2344 80.1685 77.6704C79.7733 78.1065 79.3677 78.5327 78.9518 78.9491C78.5354 79.365 78.1091 79.7706 77.6731 80.1659C77.2371 80.5611 76.7918 80.9455 76.3366 81.3191C75.882 81.6922 75.4181 82.0545 74.9455 82.4048C74.4728 82.7552 73.9914 83.0942 73.5022 83.4214C73.013 83.748 72.5156 84.0628 72.0109 84.3657C71.5063 84.6681 70.9944 84.9581 70.4753 85.2357C69.9562 85.5128 69.4309 85.7775 68.8989 86.0293C68.3669 86.2806 67.8287 86.519 67.2848 86.7445C66.7414 86.9695 66.1924 87.181 65.6382 87.3797C65.084 87.5778 64.5257 87.7626 63.9622 87.9334C63.3992 88.1042 62.8321 88.261 62.2609 88.404C61.6902 88.5469 61.1164 88.6759 60.539 88.7905C59.9616 88.9055 59.3821 89.0062 58.8 89.0923C58.218 89.179 57.6338 89.2507 57.0482 89.3085C56.4625 89.3663 55.8758 89.4097 55.288 89.4386C54.6998 89.4675 54.1121 89.4819 53.5233 89.4819C52.935 89.4819 52.3468 89.4675 51.7591 89.4386C51.1708 89.4097 50.5841 89.3663 49.9984 89.3085C49.4128 89.2507 48.8291 89.179 48.2466 89.0923C47.6645 89.0062 47.085 88.9055 46.5076 88.7905C45.9307 88.6759 45.3564 88.5469 44.7857 88.404C44.2145 88.261 43.6474 88.1042 43.0844 87.9334C42.5214 87.7626 41.9626 87.5778 41.4084 87.3797C40.8542 87.181 40.3052 86.9695 39.7618 86.7445C39.2179 86.519 38.6802 86.2806 38.1482 86.0293C37.6162 85.7775 37.0904 85.5128 36.5713 85.2357C36.0522 84.9581 35.5403 84.6681 35.0357 84.3657C34.531 84.0628 34.0336 83.748 33.5444 83.4214C33.0552 83.0942 32.5743 82.7552 32.1016 82.4048C31.6284 82.0545 31.1651 81.6922 30.7099 81.3191C30.2548 80.9455 29.8095 80.5611 29.3735 80.1659C28.9374 79.7706 28.5112 79.365 28.0948 78.9491C27.6789 78.5327 27.2733 78.1065 26.878 77.6704C26.4828 77.2344 26.0984 76.7891 25.7253 76.334C25.3517 75.8794 24.99 75.4155 24.6391 74.9428C24.2887 74.4701 23.9497 73.9887 23.623 73.4995C23.2959 73.0103 22.9811 72.5129 22.6787 72.0082C22.3758 71.5036 22.0859 70.9917 21.8088 70.4726C21.5311 69.9535 21.2664 69.4282 21.0151 68.8962C20.7633 68.3642 20.5249 67.826 20.2994 67.2821C20.0744 66.7387 19.8629 66.1897 19.6642 65.6355C19.4661 65.0813 19.2818 64.523 19.1105 63.9595C18.9397 63.3965 18.7829 62.8294 18.6399 62.2582C18.497 61.6875 18.368 61.1137 18.2534 60.5363C18.1384 59.9589 18.0377 59.3794 17.9516 58.7973C17.8654 58.2153 17.7932 57.6311 17.7354 57.0455C17.6776 56.4598 17.6347 55.8731 17.6058 55.2854C17.5769 54.6971 17.5625 54.1094 17.5625 53.5206C17.5625 52.9324 17.5769 52.3441 17.6058 51.7564C17.6347 51.1681 17.6776 50.5814 17.7354 49.9957C17.7932 49.4101 17.8654 48.8265 17.9516 48.2439C18.0377 47.6618 18.1384 47.0823 18.2534 46.5049C18.368 45.928 18.497 45.3537 18.6399 44.783C18.7829 44.2118 18.9397 43.6447 19.1105 43.0817C19.2818 42.5187 19.4661 41.9599 19.6642 41.4057C19.8629 40.8515 20.0744 40.3025 20.2994 39.7591C20.5249 39.2152 20.7633 38.6776 21.0151 38.1455C21.2664 37.6135 21.5311 37.0877 21.8088 36.5686C22.0859 36.0495 22.3758 35.5376 22.6787 35.033C22.9811 34.5283 23.2959 34.0309 23.623 33.5417C23.9497 33.0525 24.2887 32.5716 24.6391 32.0989C24.99 31.6258 25.3517 31.1624 25.7253 30.7073C26.0984 30.2521 26.4828 29.8068 26.878 29.3708C27.2733 28.9348 27.6789 28.5085 28.0948 28.0921C28.5112 27.6762 28.9374 27.2706 29.3735 26.8754C29.8095 26.4801 30.2548 26.0957 30.7099 25.7226C31.1651 25.349 31.6284 24.9873 32.1016 24.6364C32.5743 24.286 33.0552 23.947 33.5444 23.6204C34.0336 23.2932 34.531 22.9784 35.0357 22.6761C35.5403 22.3732 36.0522 22.0832 36.5713 21.8061C37.0904 21.5285 37.6162 21.2637 38.1482 21.0124C38.6802 20.7606 39.2179 20.5222 39.7618 20.2967C40.3052 20.0718 40.8542 19.8602 41.4084 19.6615C41.9626 19.4634 42.5214 19.2792 43.0844 19.1078C43.6474 18.937 44.2145 18.7802 44.7857 18.6372C45.3564 18.4943 45.9307 18.3653 46.5076 18.2508C47.085 18.1357 47.6645 18.0351 48.2466 17.9489C48.8291 17.8627 49.4128 17.7905 49.9984 17.7327C50.5841 17.6749 51.1708 17.6321 51.7591 17.6032C52.3468 17.5743 52.935 17.5598 53.5233 17.5598C54.1121 17.5598 54.6998 17.5743 55.288 17.6032C55.8758 17.6321 56.4625 17.6749 57.0482 17.7327C57.6338 17.7905 58.218 17.8627 58.8 17.9489C59.3821 18.0351 59.9616 18.1357 60.539 18.2508C61.1164 18.3653 61.6902 18.4943 62.2609 18.6372C62.8321 18.7802 63.3992 18.937 63.9622 19.1078C64.5257 19.2792 65.084 19.4634 65.6382 19.6615C66.1924 19.8602 66.7414 20.0718 67.2848 20.2967C67.8287 20.5222 68.3669 20.7606 68.8989 21.0124C69.4309 21.2637 69.9562 21.5285 70.4753 21.8061C70.9944 22.0832 71.5063 22.3732 72.0109 22.6761C72.5156 22.9784 73.013 23.2932 73.5022 23.6204C73.9914 23.947 74.4728 24.286 74.9455 24.6364C75.4181 24.9873 75.882 25.349 76.3366 25.7226C76.7918 26.0957 77.2371 26.4801 77.6731 26.8754C78.1091 27.2706 78.5354 27.6762 78.9518 28.0921C79.3677 28.5085 79.7733 28.9348 80.1685 29.3708C80.5638 29.8068 80.9482 30.2521 81.3218 30.7073C81.6949 31.1624 82.0571 31.6258 82.4075 32.0989C82.7579 32.5716 83.0969 33.0525 83.4241 33.5417C83.7507 34.0309 84.0655 34.5283 84.3684 35.033C84.6707 35.5376 84.9607 36.0495 85.2383 36.5686C85.5154 37.0877 85.7802 37.6135 86.032 38.1455C86.2833 38.6776 86.5217 39.2152 86.7472 39.7591C86.9721 40.3025 87.1837 40.8515 87.3824 41.4057C87.5805 41.9599 87.7653 42.5187 87.9361 43.0817C88.1069 43.6447 88.2637 44.2118 88.4067 44.783C88.5496 45.3537 88.6786 45.928 88.7931 46.5049C88.9082 47.0823 89.0088 47.6618 89.095 48.2439C89.1817 48.8265 89.2534 49.4101 89.3112 49.9957C89.369 50.5814 89.4124 51.1681 89.4413 51.7564C89.4702 52.3441 89.4846 52.9324 89.4846 53.5206Z" fill="white"/>
</g>
<path fill-rule="evenodd" clip-rule="evenodd" d="M34.7695 48.5318C34.4893 48.5318 34.2617 48.3047 34.2617 48.0251L34.2622 37.3988C34.2622 37.1186 34.4893 36.8916 34.769 36.8916H72.2706C72.5513 36.8916 72.7773 37.1186 72.7773 37.3988L72.7778 45.092C72.7778 45.3717 72.5513 45.5988 72.27 45.5988C71.9904 45.5988 71.7633 45.3717 71.7633 45.092V37.9056H35.2762V48.0251C35.2762 48.3047 35.0486 48.5323 34.7695 48.5318ZM62.9019 60.6033H40.2758C39.9951 60.6033 39.7691 60.3763 39.7691 60.0966C39.7691 59.8164 39.9951 59.5894 40.2758 59.5894H62.9019C63.1821 59.5894 63.4086 59.8164 63.4086 60.0966C63.4086 60.3763 63.1815 60.6033 62.9019 60.6033Z" fill="#63BDB3"/>
<path fill-rule="evenodd" clip-rule="evenodd" d="M37.6083 48.5319C37.3276 48.5319 37.1016 48.3049 37.1016 48.0252V40.2401C37.1016 39.96 37.3276 39.7329 37.6083 39.7329H69.4281C69.7083 39.7329 69.9353 39.96 69.9353 40.2401V45.0922C69.9353 45.3719 69.7083 45.5989 69.4281 45.5989C69.1474 45.5989 68.9214 45.3719 68.9214 45.0922L68.9219 40.7469H38.1155V48.0252C38.1155 48.3049 37.8885 48.5324 37.6083 48.5319ZM62.9 57.7623H40.274C39.9933 57.7623 39.7673 57.5353 39.7673 57.2556C39.7673 56.9754 39.9933 56.7484 40.274 56.7484H62.9C63.1802 56.7484 63.4068 56.9754 63.4068 57.2556C63.4068 57.5353 63.1797 57.7623 62.9 57.7623Z" fill="#63BDB3"/>
<path fill-rule="evenodd" clip-rule="evenodd" d="M49.7611 66.9616C49.4815 66.9616 49.2539 66.7346 49.2539 66.4549L49.2544 60.0966C49.2544 59.8164 49.4815 59.5894 49.7611 59.5894C50.0413 59.5894 50.2679 59.8164 50.2679 60.0966L50.2684 66.4549C50.2684 66.7346 50.0408 66.9616 49.7611 66.9616ZM57.2794 66.9616C56.9997 66.9616 56.7722 66.7346 56.7722 66.4549V60.0966C56.7722 59.8164 56.9992 59.5894 57.2789 59.5894C57.5606 59.5894 57.7861 59.8164 57.7861 60.0966V66.4549C57.7861 66.7346 57.5601 66.9616 57.2794 66.9616Z" fill="#63BDB3"/>
<path fill-rule="evenodd" clip-rule="evenodd" d="M46.2405 69.1352H60.8034V66.9617H46.2405V69.1352ZM61.3101 70.1491H45.7338C45.4536 70.1491 45.2266 69.9221 45.2266 69.6424V66.4545C45.2266 66.1748 45.4536 65.9478 45.7333 65.9478H61.3101C61.5903 65.9478 61.8173 66.1748 61.8173 66.4545V69.6424C61.8173 69.9221 61.5898 70.1491 61.3101 70.1491Z" fill="#63BDB3"/>
<path fill-rule="evenodd" clip-rule="evenodd" d="M53.5182 64.413C52.5646 64.413 51.7891 63.6364 51.7891 62.6839V60.0961C51.7891 59.8164 52.0161 59.5894 52.2958 59.5894C52.5765 59.5894 52.803 59.8164 52.803 60.0961V62.6839C52.803 63.0781 53.124 63.3991 53.5182 63.3991C53.9124 63.3991 54.2334 63.0781 54.2334 62.6839V60.0961C54.2334 59.8164 54.4605 59.5894 54.7401 59.5894C55.0203 59.5894 55.2469 59.8164 55.2469 60.0961L55.2474 62.6839C55.2474 63.6364 54.4718 64.413 53.5182 64.413Z" fill="#63BDB3"/>
<path fill-rule="evenodd" clip-rule="evenodd" d="M31.387 48.5318C31.3488 48.5318 31.3147 48.5658 31.3147 48.604L31.3153 65.1958C31.3153 65.2345 31.3483 65.2686 31.3865 65.2686H39.6979C39.7371 65.2686 39.7706 65.2345 39.7706 65.1958V48.604C39.7706 48.5658 39.7366 48.5323 39.6973 48.5323L31.387 48.5318ZM39.6979 66.2825H31.387C30.7879 66.2825 30.3008 65.7954 30.3008 65.1958V48.604C30.3008 48.0049 30.7874 47.5183 31.3865 47.5183H39.6979C40.2964 47.5183 40.7846 48.0049 40.7846 48.604V65.1958C40.7846 65.7954 40.2964 66.2825 39.6979 66.2825Z" fill="#63BDB3"/>
<path fill-rule="evenodd" clip-rule="evenodd" d="M36.3321 50.1114H34.7567C34.477 50.1114 34.25 49.8843 34.25 49.6041C34.25 49.3234 34.477 49.0974 34.7567 49.0974H36.3321C36.6118 49.0974 36.8388 49.3234 36.8388 49.6041C36.8388 49.8843 36.6118 50.1114 36.3321 50.1114Z" fill="#63BDB3"/>
<path fill-rule="evenodd" clip-rule="evenodd" d="M40.2773 61.6153H30.808C30.5278 61.6153 30.3008 61.3893 30.3008 61.1086C30.3008 60.8284 30.5278 60.6013 30.8075 60.6013H40.2773C40.5575 60.6013 40.7846 60.8284 40.7846 61.1086C40.7846 61.3893 40.5575 61.6153 40.2773 61.6153Z" fill="#63BDB3"/>
<path fill-rule="evenodd" clip-rule="evenodd" d="M64.0956 45.5989C63.7189 45.5989 63.4124 45.9054 63.4124 46.2826V66.4886C63.4124 66.8658 63.7184 67.1718 64.0956 67.1718H75.0464C75.4236 67.1718 75.7296 66.8658 75.7296 66.4886V46.2826C75.7296 45.9054 75.4236 45.5989 75.0464 45.5989H64.0956ZM75.0464 68.1857H64.0956C63.1601 68.1857 62.3984 67.4246 62.3984 66.4886V46.2826C62.3984 45.3466 63.1596 44.585 64.0956 44.585H75.0464C75.9819 44.585 76.7435 45.3466 76.7435 46.2826V66.4886C76.7435 67.4241 75.9819 68.1857 75.0464 68.1857Z" fill="#63BDB3"/>
<path fill-rule="evenodd" clip-rule="evenodd" d="M76.2334 49.3399H62.9018C62.6221 49.3399 62.3945 49.1139 62.3945 48.8332C62.3945 48.553 62.6216 48.3259 62.9018 48.3259H76.2334C76.5131 48.3259 76.7396 48.553 76.7396 48.8332C76.7396 49.1139 76.5126 49.3399 76.2334 49.3399Z" fill="#63BDB3"/>
<path fill-rule="evenodd" clip-rule="evenodd" d="M76.2334 62.7991H62.9018C62.6221 62.7991 62.3945 62.5721 62.3945 62.2924C62.3945 62.0122 62.6216 61.7852 62.9018 61.7852H76.2334C76.5131 61.7852 76.7396 62.0122 76.7396 62.2924C76.7396 62.5721 76.5126 62.7991 76.2334 62.7991Z" fill="#63BDB3"/>
<path fill-rule="evenodd" clip-rule="evenodd" d="M68.4905 65.3828H70.649V64.5887H68.4905V65.3828ZM70.7285 66.3968H68.4111C67.8961 66.3968 67.4766 65.9773 67.4766 65.4623V64.5092C67.4766 63.9937 67.8956 63.5747 68.4111 63.5747H70.7285C71.2445 63.5747 71.663 63.9937 71.663 64.5092L71.6635 65.4618C71.6635 65.9773 71.244 66.3968 70.7285 66.3968Z" fill="#63BDB3"/>
<path fill-rule="evenodd" clip-rule="evenodd" d="M70.6485 47.4693H68.4916C68.2119 47.4693 67.9844 47.2422 67.9844 46.9626C67.9849 46.6824 68.2114 46.4553 68.4916 46.4553H70.6485C70.9282 46.4553 71.1553 46.6829 71.1553 46.9626C71.1558 47.2422 70.9282 47.4693 70.6485 47.4693Z" fill="#63BDB3"/>
<path fill-rule="evenodd" clip-rule="evenodd" d="M40.2773 51.6902H30.808C30.5278 51.6902 30.3008 51.4632 30.3008 51.183C30.3008 50.9023 30.5278 50.6763 30.8075 50.6763H40.2773C40.5575 50.6763 40.7846 50.9023 40.7846 51.183C40.7846 51.4627 40.5575 51.6902 40.2773 51.6902Z" fill="#63BDB3"/>
<path fill-rule="evenodd" clip-rule="evenodd" d="M35.0484 63.0452C34.9034 63.0452 34.7791 63.1691 34.7791 63.3135L34.7796 63.5705C34.7796 63.716 34.9029 63.8388 35.0484 63.8388H36.0356C36.1811 63.8388 36.3034 63.716 36.3034 63.5705V63.3135C36.3034 63.1691 36.1811 63.0452 36.035 63.0452H35.0484ZM36.0356 64.8528H35.0484C34.341 64.8528 33.7656 64.278 33.7656 63.5705V63.3135C33.7656 62.6071 34.341 62.0318 35.0484 62.0318L36.0356 62.0312C36.742 62.0312 37.3173 62.6071 37.3173 63.3135L37.3178 63.5705C37.3178 64.278 36.7415 64.8528 36.0356 64.8528Z" fill="#63BDB3"/>
</svg>
