<svg width="100" height="100" viewBox="0 0 100 100" fill="none" xmlns="http://www.w3.org/2000/svg">
<mask id="mask0_154_1433" style="mask-type:luminance" maskUnits="userSpaceOnUse" x="18" y="16" width="69" height="68">
<path d="M18.9844 16.3979H86.1878V83.6018H18.9844V16.3979Z" fill="white"/>
</mask>
<g mask="url(#mask0_154_1433)">
<mask id="mask1_154_1433" style="mask-type:luminance" maskUnits="userSpaceOnUse" x="18" y="16" width="69" height="68">
<path d="M52.5858 16.3979C34.0283 16.3979 18.9844 31.4423 18.9844 49.9999C18.9844 68.5575 34.0283 83.6018 52.5858 83.6018C71.1439 83.6018 86.1878 68.5575 86.1878 49.9999C86.1878 31.4423 71.1439 16.3979 52.5858 16.3979Z" fill="white"/>
</mask>
<g mask="url(#mask1_154_1433)">
<path d="M18.9844 16.3979H86.1878V83.6018H18.9844V16.3979Z" fill="white"/>
</g>
</g>
<mask id="mask2_154_1433" style="mask-type:luminance" maskUnits="userSpaceOnUse" x="41" y="30" width="23" height="40">
<path d="M41.4844 30H63.6839V70H41.4844V30Z" fill="white"/>
</mask>
<g mask="url(#mask2_154_1433)">
<path d="M63.6997 49.7802V45.5836C63.6997 45.5412 63.6953 45.4992 63.6871 45.4577C63.6789 45.4158 63.6669 45.3758 63.6505 45.3362C63.6341 45.2972 63.6143 45.26 63.5907 45.2248C63.567 45.1896 63.5405 45.1568 63.5106 45.1269C63.4807 45.097 63.4479 45.07 63.4127 45.0469C63.3775 45.0232 63.3404 45.003 63.3008 44.9871C63.2618 44.9707 63.2217 44.9586 63.1798 44.9504C63.1383 44.9417 63.0964 44.9379 63.0539 44.9379H60.4714V37.8353C60.4714 37.7065 60.4681 37.5777 60.4618 37.4494C60.4555 37.3207 60.4459 37.1924 60.4334 37.0641C60.4208 36.9358 60.4049 36.8081 60.3861 36.6807C60.3673 36.5534 60.3451 36.4266 60.32 36.3002C60.2949 36.1744 60.267 36.0485 60.2356 35.9236C60.2043 35.7987 60.17 35.6748 60.1324 35.5513C60.0953 35.4283 60.0548 35.3058 60.0114 35.1848C59.968 35.0637 59.9217 34.9437 59.8725 34.8245C59.8233 34.7054 59.7707 34.5878 59.7158 34.4715C59.6608 34.3553 59.6029 34.2401 59.5421 34.1267C59.4814 34.0129 59.4182 33.901 59.3521 33.7906C59.2856 33.6802 59.2166 33.5717 59.1453 33.4646C59.0739 33.3575 58.9996 33.2519 58.9229 33.1487C58.8463 33.045 58.7672 32.9438 58.6852 32.8444C58.6037 32.7446 58.5198 32.6472 58.433 32.5517C58.3466 32.4562 58.2579 32.3631 58.1668 32.272C58.0756 32.1813 57.9825 32.0926 57.8871 32.0058C57.7921 31.9195 57.6942 31.8355 57.5948 31.7536C57.4955 31.6721 57.3937 31.593 57.2905 31.5163C57.1868 31.4391 57.0817 31.3653 56.9746 31.2935C56.8676 31.2221 56.7591 31.1532 56.6486 31.0871C56.5382 31.021 56.4258 30.9574 56.3125 30.8966C56.1987 30.8363 56.0839 30.7784 55.9677 30.723C55.851 30.668 55.7333 30.6159 55.6147 30.5667C55.4956 30.5175 55.3755 30.4712 55.2544 30.4278C55.1329 30.3844 55.0109 30.3439 54.8874 30.3068C54.7645 30.2692 54.64 30.2349 54.5151 30.2036C54.3902 30.1722 54.2649 30.1443 54.1385 30.1192C54.0122 30.0936 53.8853 30.0719 53.758 30.0531C53.6307 30.0338 53.5029 30.0184 53.3751 30.0059C53.2468 29.9929 53.1185 29.9837 52.9898 29.9774C52.861 29.9711 52.7323 29.9678 52.6035 29.9678C52.4747 29.9678 52.3464 29.9711 52.2177 29.9774C52.0889 29.9837 51.9606 29.9929 51.8324 30.0059C51.7046 30.0184 51.5768 30.0338 51.4495 30.0531C51.3221 30.0719 51.1953 30.0936 51.069 30.1192C50.9426 30.1443 50.8167 30.1722 50.6918 30.2036C50.5674 30.2349 50.443 30.2692 50.32 30.3068C50.1966 30.3439 50.0746 30.3844 49.953 30.4278C49.832 30.4712 49.7119 30.5175 49.5928 30.5667C49.4742 30.6159 49.3565 30.668 49.2398 30.723C49.1236 30.7784 49.0088 30.8363 48.895 30.8966C48.7816 30.9574 48.6693 31.021 48.5588 31.0871C48.4484 31.1532 48.3399 31.2221 48.2328 31.2935C48.1258 31.3653 48.0206 31.4391 47.917 31.5163C47.8138 31.593 47.712 31.6721 47.6127 31.7536C47.5133 31.8355 47.4154 31.9195 47.3204 32.0058C47.2249 32.0926 47.1314 32.1813 47.0407 32.272C46.9496 32.3631 46.8608 32.4562 46.7745 32.5517C46.6877 32.6472 46.6038 32.7446 46.5223 32.8444C46.4403 32.9438 46.3612 33.045 46.2845 33.1487C46.2079 33.2519 46.1336 33.3575 46.0622 33.4646C45.9904 33.5717 45.9219 33.6802 45.8553 33.7906C45.7893 33.901 45.7261 34.0129 45.6653 34.1267C45.6046 34.2401 45.5467 34.3553 45.4917 34.4715C45.4367 34.5878 45.3842 34.7054 45.335 34.8245C45.2858 34.9437 45.2395 35.0637 45.1961 35.1848C45.1527 35.3058 45.1122 35.4283 45.075 35.5513C45.0374 35.6748 45.0032 35.7987 44.9718 35.9236C44.9405 36.0485 44.9125 36.1744 44.8874 36.3002C44.8624 36.4266 44.8402 36.5534 44.8214 36.6807C44.8026 36.8081 44.7867 36.9358 44.7741 37.0641C44.7616 37.1924 44.7519 37.3207 44.7457 37.4494C44.7394 37.5777 44.736 37.7065 44.736 37.8353V44.9379H42.1535C42.1111 44.9379 42.0692 44.9417 42.0277 44.9504C41.9857 44.9586 41.9457 44.9707 41.9066 44.9871C41.8671 45.003 41.83 45.0232 41.7948 45.0469C41.7595 45.07 41.7268 45.097 41.6969 45.1269C41.667 45.1568 41.6399 45.1896 41.6168 45.2248C41.5932 45.26 41.5734 45.2972 41.557 45.3362C41.5406 45.3758 41.5285 45.4158 41.5204 45.4577C41.5122 45.4992 41.5078 45.5412 41.5078 45.5836V49.7802C41.5078 49.9552 41.5122 50.1298 41.5208 50.3044C41.5295 50.479 41.5421 50.6531 41.5584 50.8272C41.5753 51.0012 41.5961 51.1749 41.6207 51.3475C41.6457 51.5206 41.6747 51.6933 41.7079 51.865C41.7407 52.0362 41.7779 52.2074 41.8189 52.3771C41.8599 52.5469 41.9052 52.7157 41.9539 52.8835C42.0031 53.0513 42.0561 53.2177 42.113 53.3831C42.1699 53.5485 42.2307 53.7125 42.2953 53.8745C42.36 54.037 42.4284 54.1976 42.5008 54.3568C42.5726 54.5164 42.6488 54.6736 42.7284 54.8294C42.808 54.9847 42.8914 55.1385 42.9782 55.2899C43.065 55.4418 43.1557 55.5913 43.2497 55.7384C43.3437 55.886 43.4412 56.0311 43.542 56.1739C43.6427 56.3166 43.7469 56.457 43.854 56.5949C43.9615 56.7328 44.0724 56.8679 44.1862 57.0005C44.3001 57.1331 44.4168 57.2633 44.5368 57.3901C44.6564 57.5174 44.7794 57.6419 44.9053 57.7629C45.0312 57.8844 45.1599 58.0026 45.2911 58.1179C45.4227 58.2331 45.5568 58.3455 45.6933 58.454C45.8302 58.563 45.9691 58.6686 46.1109 58.7713C46.2527 58.8735 46.3964 58.9724 46.543 59.0679C46.6891 59.1639 46.8377 59.2555 46.9886 59.3442C47.1391 59.433 47.292 59.5178 47.4468 59.5993C47.6016 59.6804 47.7578 59.758 47.9165 59.8323C48.0747 59.906 48.2348 59.9765 48.3963 60.0425C48.5579 60.1091 48.7214 60.1718 48.8858 60.2301C49.0507 60.289 49.2166 60.3439 49.3835 60.3946C49.5508 60.4457 49.7191 60.4925 49.8889 60.5354C50.0582 60.5783 50.2284 60.6174 50.3996 60.6521C50.5713 60.6868 50.743 60.7177 50.9156 60.7447C51.0887 60.7712 51.2619 60.7939 51.4355 60.8127C51.6096 60.831 51.7837 60.8455 51.9582 60.8561V68.7086H42.4998C42.4574 68.7086 42.4154 68.713 42.3739 68.7212C42.3325 68.7294 42.292 68.7414 42.2529 68.7578C42.2138 68.7742 42.1767 68.794 42.141 68.8176C42.1058 68.8412 42.0735 68.8678 42.0436 68.8977C42.0132 68.928 41.9867 68.9604 41.9631 68.9956C41.9394 69.0308 41.9197 69.0684 41.9033 69.1074C41.8873 69.1465 41.8748 69.187 41.8666 69.2285C41.8584 69.27 41.8541 69.3119 41.8541 69.3544C41.8541 69.3968 41.8584 69.4387 41.8666 69.4802C41.8748 69.5222 41.8873 69.5622 41.9033 69.6013C41.9197 69.6408 41.9394 69.6779 41.9631 69.7131C41.9867 69.7484 42.0132 69.7811 42.0436 69.811C42.0735 69.8409 42.1058 69.868 42.141 69.8911C42.1767 69.9147 42.2138 69.9345 42.2529 69.9509C42.292 69.9673 42.3325 69.9794 42.3739 69.9875C42.4154 69.9957 42.4574 70.0001 42.4998 70.0001H62.7077C62.7501 70.0001 62.7921 69.9957 62.8335 69.9875C62.875 69.9794 62.9155 69.9673 62.9546 69.9509C62.9936 69.9345 63.0308 69.9147 63.066 69.8911C63.1017 69.868 63.134 69.8409 63.1639 69.811C63.1943 69.7811 63.2208 69.7484 63.2444 69.7131C63.268 69.6779 63.2878 69.6408 63.3042 69.6013C63.3201 69.5622 63.3327 69.5222 63.3409 69.4802C63.3491 69.4387 63.3534 69.3968 63.3534 69.3544C63.3534 69.3119 63.3491 69.27 63.3409 69.2285C63.3327 69.187 63.3201 69.1465 63.3042 69.1074C63.2878 69.0684 63.268 69.0308 63.2444 68.9956C63.2208 68.9604 63.1943 68.928 63.1639 68.8977C63.134 68.8678 63.1017 68.8412 63.066 68.8176C63.0308 68.794 62.9936 68.7742 62.9546 68.7578C62.9155 68.7414 62.875 68.7294 62.8335 68.7212C62.7921 68.713 62.7501 68.7086 62.7077 68.7086H53.2492V60.8561C53.4238 60.8455 53.5979 60.831 53.772 60.8127C53.9456 60.7939 54.1187 60.7712 54.2919 60.7447C54.4645 60.7177 54.6362 60.6868 54.8079 60.6521C54.9791 60.6174 55.1493 60.5783 55.3186 60.5354C55.4883 60.4925 55.6566 60.4457 55.824 60.3946C55.9908 60.3439 56.1567 60.289 56.3217 60.2301C56.4861 60.1718 56.6496 60.1091 56.8111 60.0425C56.9727 59.9765 57.1328 59.906 57.291 59.8323C57.4497 59.758 57.6059 59.6804 57.7607 59.5993C57.9155 59.5178 58.0684 59.433 58.2188 59.3442C58.3698 59.2555 58.5183 59.1639 58.6644 59.0679C58.8111 58.9724 58.9548 58.8735 59.0965 58.7713C59.2383 58.6686 59.3772 58.563 59.5142 58.454C59.6507 58.3455 59.7847 58.2331 59.9164 58.1179C60.0475 58.0026 60.1763 57.8844 60.3022 57.7629C60.428 57.6419 60.551 57.5174 60.6706 57.3901C60.7907 57.2633 60.9074 57.1331 61.0212 57.0005C61.135 56.8679 61.2459 56.7328 61.3535 56.5949C61.4606 56.457 61.5647 56.3166 61.6655 56.1739C61.7663 56.0311 61.8637 55.886 61.9578 55.7384C62.0518 55.5913 62.1425 55.4418 62.2293 55.2899C62.3161 55.1385 62.3995 54.9847 62.4791 54.8294C62.5586 54.6736 62.6348 54.5164 62.7067 54.3568C62.779 54.1976 62.8475 54.037 62.9121 53.8745C62.9768 53.7125 63.0375 53.5485 63.0944 53.3831C63.1513 53.2177 63.2044 53.0513 63.2536 52.8835C63.3023 52.7157 63.3476 52.5469 63.3886 52.3771C63.4296 52.2074 63.4667 52.0362 63.4995 51.865C63.5328 51.6933 63.5617 51.5206 63.5863 51.3475C63.6114 51.1749 63.6321 51.0012 63.649 50.8272C63.6654 50.6531 63.6779 50.479 63.6866 50.3044C63.6953 50.1298 63.6997 49.9552 63.6997 49.7802ZM46.0275 42.3549H48.962C49.0044 42.3549 49.0464 42.3511 49.0879 42.3429C49.1293 42.3342 49.1698 42.3221 49.2089 42.3057C49.2485 42.2898 49.2856 42.2701 49.3208 42.2464C49.356 42.2228 49.3888 42.1958 49.4187 42.1659C49.4486 42.136 49.4751 42.1032 49.4987 42.068C49.5224 42.0328 49.5421 41.9956 49.5585 41.9566C49.5749 41.9175 49.587 41.877 49.5952 41.8355C49.6034 41.7936 49.6077 41.7516 49.6077 41.7092C49.6077 41.6672 49.6034 41.6248 49.5952 41.5833C49.587 41.5418 49.5749 41.5013 49.5585 41.4623C49.5421 41.4232 49.5224 41.3861 49.4987 41.3509C49.4751 41.3157 49.4486 41.2829 49.4187 41.253C49.3888 41.2231 49.356 41.1961 49.3208 41.1724C49.2856 41.1488 49.2485 41.129 49.2089 41.1126C49.1698 41.0967 49.1293 41.0842 49.0879 41.076C49.0464 41.0678 49.0044 41.0639 48.962 41.0639H46.0275V38.481H48.962C49.0044 38.481 49.0464 38.4766 49.0879 38.4684C49.1293 38.4603 49.1698 38.4482 49.2089 38.4318C49.2485 38.4154 49.2856 38.3956 49.3208 38.372C49.356 38.3489 49.3888 38.3218 49.4187 38.2919C49.4486 38.262 49.4751 38.2293 49.4987 38.194C49.5224 38.1588 49.5421 38.1217 49.5585 38.0826C49.5749 38.0431 49.587 38.0031 49.5952 37.9611C49.6034 37.9196 49.6077 37.8777 49.6077 37.8353C49.6077 37.7928 49.6034 37.7509 49.5952 37.7094C49.587 37.6679 49.5749 37.6274 49.5585 37.5883C49.5421 37.5493 49.5224 37.5117 49.4987 37.4765C49.4751 37.4412 49.4486 37.4089 49.4187 37.3786C49.3888 37.3487 49.356 37.3221 49.3208 37.2985C49.2856 37.2749 49.2485 37.2551 49.2089 37.2387C49.1698 37.2228 49.1293 37.2103 49.0879 37.2021C49.0464 37.1939 49.0044 37.1895 48.962 37.1895H46.0603C46.0801 36.9889 46.109 36.7892 46.1471 36.591C46.1852 36.3928 46.2324 36.1966 46.2889 36.0027C46.3453 35.8088 46.4099 35.6179 46.4837 35.4303C46.5575 35.2422 46.6399 35.0584 46.7306 34.8781C46.8213 34.6977 46.9201 34.5217 47.0272 34.3505C47.1343 34.1793 47.249 34.0134 47.371 33.8528C47.4935 33.6922 47.6228 33.5374 47.7593 33.3889C47.8957 33.2399 48.0385 33.0981 48.1885 32.9626C48.338 32.8271 48.4932 32.6983 48.6548 32.5772C48.8159 32.4557 48.9827 32.3424 49.1544 32.2363C49.3266 32.1307 49.5026 32.0328 49.6834 31.9431C49.8643 31.8534 50.049 31.7724 50.2376 31.6995C50.4256 31.6272 50.6171 31.5631 50.8114 31.5081C51.0053 31.4531 51.2016 31.4073 51.4003 31.3702C51.5985 31.3335 51.7986 31.3055 51.9992 31.2872C52.2003 31.2684 52.4019 31.2592 52.604 31.2592C52.8056 31.2592 53.0071 31.2684 53.2082 31.2872C53.4089 31.3055 53.609 31.3335 53.8072 31.3702C54.0059 31.4073 54.2022 31.4531 54.396 31.5081C54.5904 31.5631 54.7818 31.6272 54.9699 31.6995C55.1585 31.7724 55.3432 31.8534 55.524 31.9431C55.7049 32.0328 55.8809 32.1307 56.053 32.2363C56.2247 32.3424 56.3916 32.4557 56.5527 32.5772C56.7142 32.6983 56.8695 32.8271 57.0195 32.9626C57.169 33.0981 57.3117 33.2399 57.4482 33.3889C57.5847 33.5374 57.7144 33.6922 57.8364 33.8528C57.9584 34.0134 58.0732 34.1793 58.1803 34.3505C58.2873 34.5217 58.3862 34.6977 58.4769 34.8781C58.5675 35.0584 58.65 35.2422 58.7238 35.4303C58.7975 35.6179 58.8627 35.8088 58.9186 36.0027C58.975 36.1966 59.0223 36.3928 59.0604 36.591C59.0985 36.7892 59.1274 36.9889 59.1472 37.1895H56.2455C56.203 37.1895 56.1611 37.1939 56.1196 37.2021C56.0781 37.2103 56.0376 37.2228 55.9986 37.2387C55.959 37.2551 55.9219 37.2749 55.8867 37.2985C55.8515 37.3221 55.8187 37.3487 55.7888 37.3786C55.7589 37.4089 55.7323 37.4412 55.7087 37.4765C55.6851 37.5117 55.6653 37.5493 55.6489 37.5883C55.6325 37.6274 55.6205 37.6679 55.6123 37.7094C55.6041 37.7509 55.5997 37.7928 55.5997 37.8353C55.5997 37.8777 55.6041 37.9196 55.6123 37.9611C55.6205 38.0031 55.6325 38.0431 55.6489 38.0826C55.6653 38.1217 55.6851 38.1588 55.7087 38.194C55.7323 38.2293 55.7589 38.262 55.7888 38.2919C55.8187 38.3218 55.8515 38.3489 55.8867 38.372C55.9219 38.3956 55.959 38.4154 55.9986 38.4318C56.0376 38.4482 56.0781 38.4603 56.1196 38.4684C56.1611 38.4766 56.203 38.481 56.2455 38.481H59.18V41.0639H56.2455C56.203 41.0639 56.1611 41.0678 56.1196 41.076C56.0781 41.0842 56.0376 41.0967 55.9986 41.1126C55.959 41.129 55.9219 41.1488 55.8867 41.1724C55.8515 41.1961 55.8187 41.2231 55.7888 41.253C55.7589 41.2829 55.7323 41.3157 55.7087 41.3509C55.6851 41.3861 55.6653 41.4232 55.6489 41.4623C55.6325 41.5013 55.6205 41.5418 55.6123 41.5833C55.6041 41.6248 55.5997 41.6672 55.5997 41.7092C55.5997 41.7516 55.6041 41.7936 55.6123 41.8355C55.6205 41.877 55.6325 41.9175 55.6489 41.9566C55.6653 41.9956 55.6851 42.0328 55.7087 42.068C55.7323 42.1032 55.7589 42.136 55.7888 42.1659C55.8187 42.1958 55.8515 42.2228 55.8867 42.2464C55.9219 42.2701 55.959 42.2898 55.9986 42.3057C56.0376 42.3221 56.0781 42.3342 56.1196 42.3429C56.1611 42.3511 56.203 42.3549 56.2455 42.3549H59.18V44.9379H56.2455C56.203 44.9379 56.1611 44.9417 56.1196 44.9504C56.0781 44.9586 56.0376 44.9707 55.9986 44.9871C55.959 45.003 55.9219 45.0232 55.8867 45.0469C55.8515 45.07 55.8187 45.097 55.7888 45.1269C55.7589 45.1568 55.7323 45.1896 55.7087 45.2248C55.6851 45.26 55.6653 45.2972 55.6489 45.3362C55.6325 45.3758 55.6205 45.4158 55.6123 45.4577C55.6041 45.4992 55.5997 45.5412 55.5997 45.5836C55.5997 45.626 55.6041 45.668 55.6123 45.7095C55.6205 45.751 55.6325 45.7915 55.6489 45.8305C55.6653 45.8696 55.6851 45.9072 55.7087 45.9424C55.7323 45.9776 55.7589 46.0099 55.7888 46.0403C55.8187 46.0702 55.8515 46.0967 55.8867 46.1204C55.9219 46.144 55.959 46.1638 55.9986 46.1802C56.0376 46.1961 56.0781 46.2086 56.1196 46.2168C56.1611 46.225 56.203 46.2293 56.2455 46.2293H59.18V48.8118H56.2455C56.203 48.8118 56.1611 48.8162 56.1196 48.8244C56.0781 48.8326 56.0376 48.8446 55.9986 48.861C55.959 48.8774 55.9219 48.8972 55.8867 48.9208C55.8515 48.9444 55.8187 48.971 55.7888 49.0009C55.7589 49.0312 55.7323 49.0636 55.7087 49.0988C55.6851 49.134 55.6653 49.1711 55.6489 49.2106C55.6325 49.2497 55.6205 49.2902 55.6123 49.3317C55.6041 49.3732 55.5997 49.4151 55.5997 49.4576C55.5997 49.5 55.6041 49.5419 55.6123 49.5834C55.6205 49.6254 55.6325 49.6654 55.6489 49.7045C55.6653 49.744 55.6851 49.7811 55.7087 49.8163C55.7323 49.8516 55.7589 49.8843 55.7888 49.9142C55.8187 49.9441 55.8515 49.9707 55.8867 49.9943C55.9219 50.0179 55.959 50.0377 55.9986 50.0541C56.0376 50.0705 56.0781 50.0826 56.1196 50.0907C56.1611 50.0989 56.203 50.1033 56.2455 50.1033H59.1636C59.1535 50.3116 59.1337 50.519 59.1038 50.7254C59.0744 50.9318 59.0348 51.1363 58.9856 51.3388C58.9364 51.5414 58.8776 51.7415 58.8096 51.9383C58.7411 52.1355 58.6635 52.3289 58.5772 52.5184C58.4904 52.7079 58.3949 52.8931 58.2907 53.074C58.1865 53.2543 58.0737 53.4294 57.9526 53.5991C57.8316 53.7694 57.7028 53.9329 57.5664 54.0906C57.4299 54.2483 57.2862 54.3987 57.1352 54.5424C56.9843 54.6866 56.8266 54.8231 56.6626 54.9519C56.4986 55.0806 56.3294 55.2017 56.1538 55.314C55.9783 55.4269 55.7979 55.531 55.6128 55.6265C55.4271 55.722 55.2376 55.8088 55.0442 55.886C54.8508 55.9636 54.6535 56.0316 54.4539 56.0905C54.2538 56.1493 54.0512 56.1985 53.8463 56.2375C53.6418 56.2771 53.4354 56.307 53.228 56.3268C53.0202 56.3465 52.8123 56.3562 52.604 56.3562C52.3952 56.3562 52.1873 56.3465 51.9795 56.3268C51.7721 56.307 51.5657 56.2771 51.3612 56.2375C51.1562 56.1985 50.9537 56.1493 50.7541 56.0905C50.5539 56.0316 50.3567 55.9636 50.1633 55.886C49.9699 55.8088 49.7804 55.722 49.5947 55.6265C49.4095 55.531 49.2292 55.4269 49.0536 55.314C48.8781 55.2017 48.7088 55.0806 48.5448 54.9519C48.3809 54.8231 48.2232 54.6866 48.0722 54.5424C47.9213 54.3987 47.7776 54.2483 47.6411 54.0906C47.5046 53.9329 47.3759 53.7694 47.2548 53.5991C47.1338 53.4294 47.0209 53.2543 46.9168 53.074C46.8126 52.8931 46.7171 52.7079 46.6303 52.5184C46.544 52.3289 46.4663 52.1355 46.3979 51.9383C46.3299 51.7415 46.271 51.5414 46.2218 51.3388C46.1726 51.1363 46.1331 50.9318 46.1037 50.7254C46.0738 50.519 46.054 50.3116 46.0439 50.1033H48.962C49.0044 50.1033 49.0464 50.0989 49.0879 50.0907C49.1293 50.0826 49.1698 50.0705 49.2089 50.0541C49.2485 50.0377 49.2856 50.0179 49.3208 49.9943C49.356 49.9707 49.3888 49.9441 49.4187 49.9142C49.4486 49.8843 49.4751 49.8516 49.4987 49.8163C49.5224 49.7811 49.5421 49.744 49.5585 49.7045C49.5749 49.6654 49.587 49.6254 49.5952 49.5834C49.6034 49.5419 49.6077 49.5 49.6077 49.4576C49.6077 49.4151 49.6034 49.3732 49.5952 49.3317C49.587 49.2902 49.5749 49.2497 49.5585 49.2106C49.5421 49.1711 49.5224 49.134 49.4987 49.0988C49.4751 49.0636 49.4486 49.0312 49.4187 49.0009C49.3888 48.971 49.356 48.9444 49.3208 48.9208C49.2856 48.8972 49.2485 48.8774 49.2089 48.861C49.1698 48.8446 49.1293 48.8326 49.0879 48.8244C49.0464 48.8162 49.0044 48.8118 48.962 48.8118H46.0275V46.2293H48.962C49.0044 46.2293 49.0464 46.225 49.0879 46.2168C49.1293 46.2086 49.1698 46.1961 49.2089 46.1802C49.2485 46.1638 49.2856 46.144 49.3208 46.1204C49.356 46.0967 49.3888 46.0702 49.4187 46.0403C49.4486 46.0099 49.4751 45.9776 49.4987 45.9424C49.5224 45.9072 49.5421 45.8696 49.5585 45.8305C49.5749 45.7915 49.587 45.751 49.5952 45.7095C49.6034 45.668 49.6077 45.626 49.6077 45.5836C49.6077 45.5412 49.6034 45.4992 49.5952 45.4577C49.587 45.4158 49.5749 45.3758 49.5585 45.3362C49.5421 45.2972 49.5224 45.26 49.4987 45.2248C49.4751 45.1896 49.4486 45.1568 49.4187 45.1269C49.3888 45.097 49.356 45.07 49.3208 45.0469C49.2856 45.0232 49.2485 45.003 49.2089 44.9871C49.1698 44.9707 49.1293 44.9586 49.0879 44.9504C49.0464 44.9417 49.0044 44.9379 48.962 44.9379H46.0275V42.3549ZM42.7993 49.7802V46.2293H44.736V49.7807C44.7365 49.9089 44.7394 50.0377 44.7457 50.1665C44.7524 50.2947 44.7616 50.4235 44.7741 50.5513C44.7871 50.6796 44.8026 50.8074 44.8219 50.9347C44.8407 51.062 44.8628 51.1888 44.8879 51.3147C44.913 51.4411 44.9415 51.5669 44.9723 51.6918C45.0037 51.8163 45.0384 51.9407 45.0755 52.0636C45.1131 52.1866 45.1536 52.3091 45.197 52.4302C45.2405 52.5512 45.2867 52.6713 45.3359 52.7904C45.3851 52.9095 45.4372 53.0267 45.4922 53.1434C45.5476 53.2596 45.6055 53.3744 45.6663 53.4882C45.7266 53.6016 45.7902 53.7134 45.8563 53.8239C45.9228 53.9343 45.9913 54.0433 46.0632 54.1499C46.1345 54.2569 46.2088 54.3625 46.2855 54.4657C46.3622 54.569 46.4413 54.6707 46.5232 54.7701C46.6047 54.8694 46.6887 54.9668 46.7755 55.0623C46.8618 55.1578 46.9505 55.2509 47.0417 55.342C47.1323 55.4327 47.2259 55.5214 47.3214 55.6082C47.4164 55.6945 47.5138 55.7784 47.6136 55.8599C47.713 55.9419 47.8147 56.021 47.9179 56.0977C48.0211 56.1744 48.1267 56.2482 48.2338 56.32C48.3409 56.3914 48.4494 56.4603 48.5598 56.5264C48.6702 56.5925 48.7821 56.6561 48.8959 56.7164C49.0093 56.7772 49.124 56.8351 49.2407 56.89C49.357 56.945 49.4746 56.9976 49.5938 57.0468C49.7124 57.096 49.8325 57.1423 49.954 57.1857C50.075 57.2291 50.197 57.2691 50.3205 57.3067C50.4435 57.3438 50.5674 57.3781 50.6923 57.4094C50.8172 57.4408 50.9431 57.4692 51.069 57.4943C51.1953 57.5194 51.3221 57.5411 51.4495 57.5599C51.5768 57.5792 51.7046 57.5946 51.8329 57.6071C51.9606 57.6202 52.0894 57.6293 52.2177 57.6356C52.3464 57.6419 52.4752 57.6452 52.6035 57.6452C52.7323 57.6452 52.861 57.6419 52.9898 57.6356C53.1181 57.6293 53.2468 57.6202 53.3746 57.6071C53.5029 57.5946 53.6307 57.5792 53.758 57.5599C53.8853 57.5411 54.0122 57.5194 54.1385 57.4943C54.2644 57.4692 54.3902 57.4408 54.5151 57.4094C54.64 57.3781 54.764 57.3438 54.887 57.3067C55.0104 57.2691 55.1324 57.2291 55.2535 57.1857C55.375 57.1423 55.4951 57.096 55.6137 57.0468C55.7328 56.9976 55.8505 56.945 55.9667 56.89C56.0834 56.8351 56.1982 56.7772 56.3115 56.7164C56.4253 56.6561 56.5372 56.5925 56.6477 56.5264C56.7581 56.4603 56.8666 56.3914 56.9737 56.32C57.0807 56.2482 57.1863 56.1744 57.2895 56.0977C57.3927 56.021 57.4945 55.9419 57.5938 55.8599C57.6937 55.7784 57.7911 55.6945 57.8861 55.6082C57.9816 55.5214 58.0751 55.4327 58.1658 55.342C58.2569 55.2509 58.3457 55.1578 58.432 55.0623C58.5188 54.9668 58.6027 54.8694 58.6842 54.7701C58.7662 54.6707 58.8453 54.569 58.922 54.4657C58.9986 54.3621 59.0729 54.2569 59.1443 54.1499C59.2161 54.0433 59.2846 53.9343 59.3512 53.8239C59.4172 53.7134 59.4809 53.6016 59.5412 53.4882C59.6019 53.3744 59.6598 53.2596 59.7153 53.1434C59.7703 53.0267 59.8223 52.9095 59.8715 52.7904C59.9207 52.6713 59.967 52.5512 60.0104 52.4302C60.0538 52.3091 60.0943 52.1866 60.1319 52.0636C60.1691 51.9407 60.2038 51.8163 60.2351 51.6918C60.266 51.5669 60.2945 51.4411 60.3195 51.3147C60.3446 51.1888 60.3668 51.062 60.3856 50.9347C60.4049 50.8074 60.4203 50.6796 60.4334 50.5513C60.4459 50.4235 60.4551 50.2947 60.4618 50.1665C60.4681 50.0377 60.471 49.9089 60.4714 49.7807V46.2293H62.4082V49.7802C62.4082 49.9408 62.4043 50.1009 62.3966 50.2615C62.3884 50.4216 62.3768 50.5817 62.3609 50.7413C62.3455 50.9009 62.3257 51.0601 62.3021 51.2187C62.2785 51.3774 62.251 51.5356 62.2201 51.6933C62.1888 51.8505 62.1535 52.0067 62.1145 52.1625C62.0754 52.3183 62.0325 52.4731 61.9862 52.6264C61.9394 52.7798 61.8893 52.9322 61.8353 53.0831C61.7812 53.2346 61.7234 53.3841 61.6621 53.5321C61.6004 53.6806 61.5358 53.8272 61.4668 53.9724C61.3983 54.1171 61.326 54.2608 61.2508 54.4021C61.1751 54.5434 61.096 54.6832 61.0135 54.8207C60.931 54.9586 60.8452 55.0941 60.756 55.2272C60.6668 55.3608 60.5742 55.492 60.4787 55.6207C60.3832 55.7495 60.2843 55.8763 60.1826 56.0003C60.0808 56.1242 59.9762 56.2457 59.8686 56.3644C59.7606 56.4835 59.6502 56.5997 59.5364 56.713C59.423 56.8264 59.3068 56.9373 59.1882 57.0448C59.0691 57.1529 58.9475 57.2575 58.8236 57.3593C58.6997 57.461 58.5733 57.5599 58.4441 57.6554C58.3153 57.7509 58.1841 57.8435 58.051 57.9327C57.9174 58.0214 57.7819 58.1072 57.6445 58.1897C57.5066 58.2727 57.3672 58.3513 57.2254 58.427C57.0841 58.5027 56.9409 58.575 56.7957 58.6435C56.6506 58.712 56.504 58.7771 56.3559 58.8383C56.2074 58.9001 56.0579 58.9575 55.9069 59.0115C55.7555 59.066 55.6036 59.1161 55.4497 59.1629C55.2964 59.2092 55.1416 59.2521 54.9858 59.2912C54.8305 59.3298 54.6738 59.365 54.5166 59.3963C54.3589 59.4277 54.2012 59.4551 54.0425 59.4788C53.8834 59.5024 53.7242 59.5217 53.5646 59.5376C53.405 59.5535 53.2449 59.5651 53.0848 59.5728C52.9247 59.581 52.7641 59.5849 52.6035 59.5849C52.4434 59.5849 52.2828 59.581 52.1227 59.5728C51.9626 59.5651 51.8025 59.5535 51.6428 59.5376C51.4832 59.5217 51.3236 59.5024 51.1649 59.4788C51.0063 59.4551 50.8481 59.4277 50.6909 59.3963C50.5337 59.365 50.3769 59.3302 50.2216 59.2912C50.0659 59.2521 49.9111 59.2092 49.7577 59.1629C49.6039 59.1161 49.452 59.066 49.3005 59.0115C49.1496 58.9575 49.0001 58.9001 48.8516 58.8383C48.7035 58.7771 48.5569 58.712 48.4117 58.6435C48.2666 58.575 48.1234 58.5027 47.9821 58.427C47.8403 58.3513 47.7009 58.2727 47.563 58.1897C47.4255 58.1072 47.29 58.0214 47.1564 57.9327C47.0233 57.8435 46.8922 57.7509 46.7629 57.6554C46.6342 57.5599 46.5078 57.461 46.3839 57.3593C46.2599 57.2575 46.1384 57.1529 46.0193 57.0448C45.9007 56.9373 45.7844 56.8264 45.6706 56.713C45.5573 56.5997 45.4469 56.4835 45.3388 56.3644C45.2313 56.2457 45.1266 56.1242 45.0249 56.0003C44.9231 55.8763 44.8243 55.7495 44.7288 55.6207C44.6328 55.492 44.5407 55.3608 44.4515 55.2272C44.3623 55.0941 44.2764 54.9586 44.194 54.8207C44.1115 54.6832 44.0324 54.5434 43.9567 54.4021C43.8815 54.2608 43.8091 54.1171 43.7406 53.9724C43.6717 53.8272 43.6071 53.6806 43.5453 53.5321C43.4841 53.3841 43.4262 53.2346 43.3722 53.0831C43.3182 52.9322 43.268 52.7798 43.2213 52.6264C43.175 52.4731 43.132 52.3183 43.093 52.1625C43.0539 52.0067 43.0187 51.8505 42.9874 51.6933C42.956 51.5356 42.929 51.3774 42.9054 51.2187C42.8818 51.0601 42.862 50.9009 42.8465 50.7413C42.8306 50.5817 42.8191 50.4216 42.8109 50.2615C42.8031 50.1009 42.7993 49.9408 42.7993 49.7802Z" fill="#63BDB3"/>
</g>
</svg>
